<?xml version="1.0" encoding="UTF-8" standalone="no"?>
<!DOCTYPE svg PUBLIC "-//W3C//DTD SVG 1.0//EN" "http://www.w3.org/TR/2001/PR-SVG-20010719/DTD/svg10.dtd">
<svg width="8cm" height="9cm" viewBox="39 19 143 161" xmlns="http://www.w3.org/2000/svg" xmlns:xlink="http://www.w3.org/1999/xlink">
  <g>
    <rect style="fill: #ffffff" x="40" y="20" width="140" height="38"/>
    <rect style="fill: none; fill-opacity:0; stroke-width: 2; stroke: #000000" x="40" y="20" width="140" height="38"/>
    <text font-size="12.7998" style="fill: #000000;text-anchor:middle;font-family:sans-serif;font-style:normal;font-weight:normal" x="110" y="42.9">
      <tspan x="110" y="42.9">Capa alto nivel</tspan>
    </text>
  </g>
  <g>
    <rect style="fill: #ffffff" x="40" y="80" width="140" height="38"/>
    <rect style="fill: none; fill-opacity:0; stroke-width: 2; stroke: #000000" x="40" y="80" width="140" height="38"/>
    <text font-size="12.7998" style="fill: #000000;text-anchor:middle;font-family:sans-serif;font-style:normal;font-weight:normal" x="110" y="102.9">
      <tspan x="110" y="102.9">Capa nivel medio</tspan>
    </text>
  </g>
  <g>
    <rect style="fill: #ffffff" x="40" y="140" width="140" height="38"/>
    <rect style="fill: none; fill-opacity:0; stroke-width: 2; stroke: #000000" x="40" y="140" width="140" height="38"/>
    <text font-size="12.7998" style="fill: #000000;text-anchor:middle;font-family:sans-serif;font-style:normal;font-weight:normal" x="110" y="162.9">
      <tspan x="110" y="162.9">Capa bajo nivel</tspan>
    </text>
  </g>
  <g>
    <line style="fill: none; fill-opacity:0; stroke-width: 2; stroke: #000000" x1="75" y1="58" x2="75" y2="70.2639"/>
    <polygon style="fill: #000000" points="75,77.7639 70,67.7639 75,70.2639 80,67.7639 "/>
    <polygon style="fill: none; fill-opacity:0; stroke-width: 2; stroke: #000000" points="75,77.7639 70,67.7639 75,70.2639 80,67.7639 "/>
  </g>
  <g>
    <line style="fill: none; fill-opacity:0; stroke-width: 2; stroke: #000000" x1="145" y1="80" x2="145" y2="67.7361"/>
    <polygon style="fill: #000000" points="145,60.2361 150,70.2361 145,67.7361 140,70.2361 "/>
    <polygon style="fill: none; fill-opacity:0; stroke-width: 2; stroke: #000000" points="145,60.2361 150,70.2361 145,67.7361 140,70.2361 "/>
  </g>
  <g>
    <line style="fill: none; fill-opacity:0; stroke-width: 2; stroke: #000000" x1="75" y1="118" x2="75" y2="130.264"/>
    <polygon style="fill: #000000" points="75,137.764 70,127.764 75,130.264 80,127.764 "/>
    <polygon style="fill: none; fill-opacity:0; stroke-width: 2; stroke: #000000" points="75,137.764 70,127.764 75,130.264 80,127.764 "/>
  </g>
  <g>
    <line style="fill: none; fill-opacity:0; stroke-width: 2; stroke: #000000" x1="145" y1="140" x2="145" y2="127.736"/>
    <polygon style="fill: #000000" points="145,120.236 150,130.236 145,127.736 140,130.236 "/>
    <polygon style="fill: none; fill-opacity:0; stroke-width: 2; stroke: #000000" points="145,120.236 150,130.236 145,127.736 140,130.236 "/>
  </g>
</svg>
